<svg width="24" height="24" viewBox="0 0 24 24" fill="none" xmlns="http://www.w3.org/2000/svg">
<path d="M7.64286 2.40006C7.32081 2.40006 7.01195 2.52649 6.78423 2.75154C6.5565 2.97658 6.42857 3.28182 6.42857 3.60008V21.6005L10.0447 18.34C10.7158 17.7349 11.5915 17.3994 12.5 17.3994C13.4085 17.3994 14.2842 17.7349 14.9553 18.34L18.5714 21.6005V3.60008C18.5714 3.28182 18.4435 2.97658 18.2158 2.75154C17.988 2.52649 17.6792 2.40006 17.3571 2.40006H7.64286ZM7.64286 0H17.3571C18.3233 0 19.2499 0.379293 19.933 1.05444C20.6162 1.72959 21 2.64528 21 3.60008V21.6005C20.9999 22.0658 20.8629 22.521 20.6058 22.9108C20.3487 23.3005 19.9824 23.608 19.5517 23.7958C19.1209 23.9836 18.6442 24.0436 18.1796 23.9685C17.7149 23.8935 17.2824 23.6865 16.9346 23.3729L13.3184 20.1125C13.0947 19.9108 12.8028 19.7989 12.5 19.7989C12.1972 19.7989 11.9053 19.9108 11.6816 20.1125L8.06543 23.3729C7.71763 23.6865 7.28508 23.8935 6.82044 23.9685C6.3558 24.0436 5.87909 23.9836 5.44833 23.7958C5.01758 23.608 4.65135 23.3005 4.39421 22.9108C4.13707 22.521 4.00011 22.0658 4 21.6005V3.60008C4 2.64528 4.3838 1.72959 5.06697 1.05444C5.75014 0.379293 6.67671 0 7.64286 0V0Z" fill="black"/>
<path d="M6 2H19V22L12.5 18L6 22V2Z" fill="black"/>
</svg>
