<svg width="24" height="24" viewBox="0 0 24 24" fill="none" xmlns="http://www.w3.org/2000/svg">
<g clip-path="url(#clip0)">
<path d="M12 0.799992L12.52 0.191992C12.3751 0.0680481 12.1907 -6.10352e-05 12 -6.10352e-05C11.8093 -6.10352e-05 11.6249 0.0680481 11.48 0.191992L12 0.799992ZM0.8 10.4L0.28 9.79199L0 10.032V10.4H0.8ZM8.8 23.2V24C9.01217 24 9.21566 23.9157 9.36569 23.7657C9.51571 23.6156 9.6 23.4122 9.6 23.2H8.8ZM15.2 23.2H14.4C14.4 23.4122 14.4843 23.6156 14.6343 23.7657C14.7843 23.9157 14.9878 24 15.2 24V23.2ZM23.2 10.4H24V10.032L23.72 9.79199L23.2 10.4ZM2.4 24H8.8V22.4H2.4V24ZM23.72 9.79199L12.52 0.191992L11.48 1.40799L17.08 6.20799L22.68 11.008L23.72 9.79199ZM11.48 0.191992L0.28 9.79199L1.32 11.008L12.52 1.40799L11.48 0.191992ZM9.6 23.2V18.4H8V23.2H9.6ZM14.4 18.4V23.2H16V18.4H14.4ZM15.2 24H21.6V22.4H15.2V24ZM24 21.6V10.4H22.4V21.6H24ZM0 10.4V21.6H1.6V10.4H0ZM12 16C12.6365 16 13.247 16.2528 13.6971 16.7029C14.1471 17.153 14.4 17.7635 14.4 18.4H16C16 17.3391 15.5786 16.3217 14.8284 15.5716C14.0783 14.8214 13.0609 14.4 12 14.4V16ZM12 14.4C10.9391 14.4 9.92172 14.8214 9.17157 15.5716C8.42143 16.3217 8 17.3391 8 18.4H9.6C9.6 17.7635 9.85286 17.153 10.3029 16.7029C10.753 16.2528 11.3635 16 12 16V14.4ZM21.6 24C22.2365 24 22.847 23.7471 23.2971 23.297C23.7471 22.847 24 22.2365 24 21.6H22.4C22.4 21.8122 22.3157 22.0156 22.1657 22.1657C22.0157 22.3157 21.8122 22.4 21.6 22.4V24ZM2.4 22.4C2.18783 22.4 1.98434 22.3157 1.83431 22.1657C1.68429 22.0156 1.6 21.8122 1.6 21.6H0C0 22.2365 0.252856 22.847 0.702944 23.297C1.15303 23.7471 1.76348 24 2.4 24V22.4Z" fill="black"/>
<path d="M1 10.5L11.7442 1L23 10.5V15.5L1 15V10.5Z" fill="black"/>
<path d="M14.5 15H23V23H16L14.5 15Z" fill="black"/>
<path d="M9.5 15H1V23H8L9.5 15Z" fill="black"/>
</g>
<defs>
<clipPath id="clip0">
<rect width="24" height="24" fill="white"/>
</clipPath>
</defs>
</svg>
