<svg width="24" height="24" viewBox="0 0 24 24" fill="none" xmlns="http://www.w3.org/2000/svg">
<path d="M10 20C4.46154 20 0 15.5385 0 10C0 4.46154 4.46154 0 10 0C15.5385 0 20 4.46154 20 10C20 15.5385 15.5385 20 10 20ZM10 1.53846C5.30769 1.53846 1.53846 5.30769 1.53846 10C1.53846 14.6923 5.30769 18.4615 10 18.4615C14.6923 18.4615 18.4615 14.6923 18.4615 10C18.4615 5.30769 14.6923 1.53846 10 1.53846Z" fill="black"/>
<path d="M17.9523 17L24 23.0477L23.0477 24L17 17.9523L17.9523 17Z" fill="black"/>
<path d="M3 3L10 1L17 3L19.5 10.5L17 17L10 19L3 17L1 10L3 3Z" fill="black"/>
</svg>
