<svg width="24" height="24" viewBox="0 0 24 24" fill="none" xmlns="http://www.w3.org/2000/svg">
<path d="M22.0391 12.7919C21.8433 12.5729 21.7353 12.2915 21.7353 12C21.7353 11.7086 21.8433 11.4271 22.0391 11.2081L23.6025 9.48034C23.7748 9.29157 23.8818 9.05404 23.9081 8.80184C23.9345 8.54964 23.8788 8.29573 23.7491 8.07653L21.3062 3.9251C21.1778 3.70615 20.9824 3.5326 20.7477 3.42919C20.513 3.32577 20.2511 3.29777 19.9993 3.34918L17.703 3.80511C17.4108 3.86442 17.1066 3.81662 16.8478 3.67073C16.589 3.52485 16.3936 3.29096 16.2983 3.01322L15.5532 0.817521C15.4713 0.579208 15.3152 0.372219 15.1069 0.225812C14.8987 0.0794039 14.6489 0.000982422 14.3928 0.00163173H9.50706C9.2407 -0.0120249 8.97711 0.0603354 8.75656 0.207661C8.536 0.354986 8.3706 0.569177 8.28561 0.817521L7.6016 3.01322C7.50633 3.29096 7.31086 3.52485 7.05209 3.67073C6.79332 3.81662 6.48913 3.86442 6.19694 3.80511L3.83955 3.34918C3.60082 3.31604 3.35745 3.35304 3.14009 3.45553C2.92273 3.55802 2.74111 3.7214 2.61811 3.9251L0.175217 8.07653C0.0422754 8.29328 -0.0174996 8.54577 0.00443817 8.7979C0.0263759 9.05003 0.128903 9.2889 0.297362 9.48034L1.8486 11.2081C2.04442 11.4271 2.15241 11.7086 2.15241 12C2.15241 12.2915 2.04442 12.5729 1.8486 12.7919L0.297362 14.5197C0.128903 14.7111 0.0263759 14.95 0.00443817 15.2021C-0.0174996 15.4542 0.0422754 15.7067 0.175217 15.9235L2.61811 20.0749C2.74648 20.2938 2.94194 20.4674 3.17662 20.5708C3.4113 20.6742 3.67322 20.7022 3.92505 20.6508L6.22137 20.1949C6.51356 20.1356 6.81774 20.1834 7.07652 20.3293C7.33529 20.4752 7.53076 20.709 7.62603 20.9868L8.37111 23.1825C8.4561 23.4308 8.6215 23.645 8.84206 23.7923C9.06262 23.9397 9.3262 24.012 9.59256 23.9984H14.4783C14.7344 23.999 14.9842 23.9206 15.1924 23.7742C15.4007 23.6278 15.5568 23.4208 15.6387 23.1825L16.3838 20.9868C16.4791 20.709 16.6745 20.4752 16.9333 20.3293C17.1921 20.1834 17.4963 20.1356 17.7885 20.1949L20.0848 20.6508C20.3366 20.7022 20.5985 20.6742 20.8332 20.5708C21.0679 20.4674 21.2633 20.2938 21.3917 20.0749L23.8346 15.9235C23.9643 15.7043 24.02 15.4504 23.9936 15.1982C23.9673 14.946 23.8603 14.7084 23.688 14.5197L22.0391 12.7919ZM20.2191 14.3997L21.1963 15.4795L19.6328 18.1432L18.1915 17.8552C17.3118 17.6786 16.3967 17.8254 15.6199 18.2677C14.8431 18.7101 14.2587 19.4172 13.9775 20.2549L13.5134 21.5987H10.3865L9.94678 20.2309C9.66567 19.3932 9.08124 18.6861 8.30443 18.2437C7.52762 17.8014 6.6125 17.6546 5.73279 17.8312L4.29149 18.1192L2.70361 15.4675L3.68076 14.3877C4.28166 13.7277 4.61387 12.8734 4.61387 11.988C4.61387 11.1026 4.28166 10.2483 3.68076 9.58833L2.70361 8.50848L4.26706 5.86883L5.70836 6.15679C6.58807 6.33344 7.50319 6.18665 8.28 5.74429C9.05681 5.30193 9.64124 4.5948 9.92235 3.75712L10.3865 2.40131H13.5134L13.9775 3.76912C14.2587 4.6068 14.8431 5.31393 15.6199 5.75629C16.3967 6.19865 17.3118 6.34544 18.1915 6.16879L19.6328 5.88083L21.1963 8.54447L20.2191 9.62432C19.625 10.2827 19.2969 11.1321 19.2969 12.012C19.2969 12.8919 19.625 13.7413 20.2191 14.3997V14.3997ZM11.9499 7.20065C10.9836 7.20065 10.039 7.48213 9.23555 8.00949C8.43209 8.53685 7.80587 9.2864 7.43607 10.1634C7.06628 11.0403 6.96953 12.0053 7.15804 12.9363C7.34656 13.8673 7.81189 14.7225 8.49518 15.3937C9.17847 16.0649 10.049 16.5219 10.9968 16.7071C11.9445 16.8923 12.9269 16.7973 13.8197 16.434C14.7124 16.0708 15.4755 15.4556 16.0123 14.6664C16.5492 13.8771 16.8357 12.9492 16.8357 12C16.8357 10.7271 16.321 9.5064 15.4047 8.60635C14.4885 7.7063 13.2457 7.20065 11.9499 7.20065V7.20065ZM11.9499 14.3997C11.4668 14.3997 10.9945 14.2589 10.5927 13.9953C10.191 13.7316 9.87791 13.3568 9.69301 12.9183C9.50811 12.4798 9.45974 11.9973 9.554 11.5318C9.64825 11.0664 9.88092 10.6388 10.2226 10.3032C10.5642 9.96757 10.9995 9.73903 11.4734 9.64644C11.9472 9.55384 12.4384 9.60136 12.8848 9.78299C13.3312 9.96462 13.7127 10.2722 13.9811 10.6668C14.2496 11.0614 14.3928 11.5254 14.3928 12C14.3928 12.6364 14.1355 13.2468 13.6773 13.6968C13.2192 14.1469 12.5978 14.3997 11.9499 14.3997Z" fill="black"/>
</svg>
