<svg width="24" height="24" viewBox="0 0 24 24" fill="none" xmlns="http://www.w3.org/2000/svg">
<path d="M12 11C13.1867 11 14.3467 10.6774 15.3334 10.0731C16.3201 9.46874 17.0891 8.60975 17.5433 7.60476C17.9974 6.59977 18.1162 5.4939 17.8847 4.427C17.6532 3.36011 17.0818 2.3801 16.2426 1.61091C15.4035 0.841726 14.3344 0.317902 13.1705 0.105683C12.0067 -0.106535 10.8003 0.00238306 9.7039 0.418665C8.60754 0.834947 7.67047 1.5399 7.01118 2.44437C6.35189 3.34884 6 4.4122 6 5.5C6 6.95869 6.63214 8.35764 7.75736 9.38909C8.88258 10.4205 10.4087 11 12 11ZM12 1.57143C12.8476 1.57143 13.6762 1.80184 14.381 2.23351C15.0858 2.66519 15.6351 3.27875 15.9595 3.9966C16.2839 4.71446 16.3687 5.50436 16.2034 6.26643C16.038 7.0285 15.6298 7.7285 15.0305 8.27792C14.4311 8.82734 13.6674 9.2015 12.8361 9.35309C12.0048 9.50467 11.143 9.42687 10.3599 9.12953C9.57681 8.83218 8.90748 8.32865 8.43656 7.6826C7.96564 7.03655 7.71429 6.277 7.71429 5.5C7.71429 4.45808 8.16581 3.45883 8.96954 2.72208C9.77327 1.98533 10.8634 1.57143 12 1.57143V1.57143Z" fill="black"/>
<path d="M23.5107 17.2175C22.0304 15.8854 20.2465 14.8243 18.2682 14.0992C16.2898 13.374 14.1585 13 12.0046 13C9.85068 13 7.71939 13.374 5.74103 14.0992C3.76267 14.8243 1.97879 15.8854 0.498463 17.2175C0.177521 17.5094 -0.000726379 17.8944 2.22489e-06 18.2942V22.4282C2.22489e-06 22.845 0.194507 23.2448 0.540727 23.5396C0.886947 23.8344 1.35652 24 1.84615 24H22.1538C22.6434 24 23.113 23.8344 23.4592 23.5396C23.8055 23.2448 24 22.845 24 22.4282V18.2942C24.0032 17.8955 23.8283 17.5106 23.5107 17.2175V17.2175ZM22.1538 22.4282H1.84615V18.2864C3.15436 17.1135 4.72918 16.1796 6.47478 15.5414C8.22038 14.9032 10.1002 14.5741 12 14.5741C13.8997 14.5741 15.7796 14.9032 17.5252 15.5414C19.2708 16.1796 20.8456 17.1135 22.1538 18.2864V22.4282Z" fill="black"/>
</svg>
